<?xml version="1.0" standalone="no"?><!DOCTYPE svg PUBLIC "-//W3C//DTD SVG 1.1//EN" "http://www.w3.org/Graphics/SVG/1.1/DTD/svg11.dtd"><svg xmlns="http://www.w3.org/2000/svg" version="1.1" width="1009.333" height="739.167" xmlns:xlink="http://www.w3.org/1999/xlink" xlink="http://www.w3.org/1999/xlink" style="position:relative;overflow:hidden;" viewBox="-4.667 -5.667 1009.333 739.167"><defs/><g><g width="100" height="50" transform="scale(1,1) translate(291,504.5)"><g stroke="#E1F2F9" stroke-opacity="1" stroke-width="1" stroke-dasharray="none" width="100" height="50" transform="scale(1,1) translate(0,0)" fill="#E1F2F9" fill-opacity="1"><rect width="100" height="50"/></g><g width="95" height="45" transform="scale(1,1) translate(2.5,2.5)"><text width="95" height="14.166666030883789" transform="scale(1,1) translate(0,15.416666984558105)" xml:space="preserve"><tspan xml:space="preserve" text-rendering="optimizeSpeed" font-size="12.5" font-weight="normal" font-style="normal" text-decoration="none" fill="#333333" opacity="1" x="29.788" text-anchor="start" y="11.667" textLength="35.4248046875" style="font-family: Arial, Helvetica Neue, Helvetica, sans-serif;">MESS</tspan></text></g></g><g width="100" height="50" transform="scale(1,1) translate(291,335.833)"><g stroke="#E1F2F9" stroke-opacity="1" stroke-width="1" stroke-dasharray="none" width="100" height="50" transform="scale(1,1) translate(0,0)" fill="#E1F2F9" fill-opacity="1"><rect width="100" height="50"/></g><g width="95" height="45" transform="scale(1,1) translate(2.5,2.5)"><text width="95" height="14.166666030883789" transform="scale(1,1) translate(0,15.416666984558105)" xml:space="preserve"><tspan xml:space="preserve" text-rendering="optimizeSpeed" font-size="12.5" font-weight="normal" font-style="normal" text-decoration="none" fill="#333333" opacity="1" x="18.679" text-anchor="start" y="11.667" textLength="57.6416015625" style="font-family: Arial, Helvetica Neue, Helvetica, sans-serif;">STUDENT</tspan></text></g></g><g width="100" height="50" transform="scale(1,1) translate(566,504.5)"><g stroke="#E1F2F9" stroke-opacity="1" stroke-width="1" stroke-dasharray="none" width="100" height="50" transform="scale(1,1) translate(0,0)" fill="#E1F2F9" fill-opacity="1"><rect width="100" height="50"/></g><g width="95" height="45" transform="scale(1,1) translate(2.5,2.5)"><text width="95" height="14.166666030883789" transform="scale(1,1) translate(0,15.416666984558105)" xml:space="preserve"><tspan xml:space="preserve" text-rendering="optimizeSpeed" font-size="12.5" font-weight="normal" font-style="normal" text-decoration="none" fill="#333333" opacity="1" x="4.07" text-anchor="start" y="11.667" textLength="86.859130859375" style="font-family: Arial, Helvetica Neue, Helvetica, sans-serif;">Content Branch</tspan></text></g></g><g width="100" height="50" transform="scale(1,1) translate(291,664.5)"><g stroke="#E1F2F9" stroke-opacity="1" stroke-width="1" stroke-dasharray="none" width="100" height="50" transform="scale(1,1) translate(0,0)" fill="#E1F2F9" fill-opacity="1"><rect width="100" height="50"/></g><g width="95" height="45" transform="scale(1,1) translate(2.5,2.5)"><text width="95" height="28.333332061767578" transform="scale(1,1) translate(0,8.333333969116211)" xml:space="preserve"><tspan xml:space="preserve" text-rendering="optimizeSpeed" font-size="12.5" font-weight="normal" font-style="normal" text-decoration="none" fill="#333333" opacity="1" x="19.708" text-anchor="start" y="11.667" textLength="52.111812591552734" style="font-family: Arial, Helvetica Neue, Helvetica, sans-serif;">Technical</tspan><tspan xml:space="preserve" text-rendering="optimizeSpeed" font-size="12.5" font-weight="normal" font-style="normal" text-decoration="none" fill="#333333" opacity="1" x="25.61" text-anchor="start" y="25.833" textLength="43.780513763427734" style="font-family: Arial, Helvetica Neue, Helvetica, sans-serif;">Support</tspan></text></g></g><g width="110.167" height="56.667" transform="scale(1,1) translate(286,416.833)"><g transform="scale(1,1) translate(0,0)" stroke="#87BDE2" fill="#87BDE2" fill-opacity="1" stroke-opacity="1"><path d="M55.083,0 L110.167,28.333 L55.083,56.667 L0,28.333 L55.083,0 z" stroke-width="1" stroke-dasharray="none"/></g><g width="54.58333333333333" height="27.833333333333332" transform="scale(1,1) translate(27.792,14.417)"><text width="54.58333333333333" height="14.166666030883789" transform="scale(1,1) translate(0,6.8333336512247715)" xml:space="preserve"><tspan xml:space="preserve" text-rendering="optimizeSpeed" font-size="12.5" font-weight="normal" font-style="normal" text-decoration="none" fill="#333333" opacity="1" x="8.877" text-anchor="start" y="11.667" textLength="36.828609466552734" style="font-family: Arial, Helvetica Neue, Helvetica, sans-serif;">eats in</tspan></text></g></g><g width="110.167" height="56.667" transform="scale(1,1) translate(425,501.167)"><g transform="scale(1,1) translate(0,0)" stroke="#87BDE2" fill="#87BDE2" fill-opacity="1" stroke-opacity="1"><path d="M55.083,0 L110.167,28.333 L55.083,56.667 L0,28.333 L55.083,0 z" stroke-width="1" stroke-dasharray="none"/></g><g width="54.58333333333333" height="27.833333333333332" transform="scale(1,1) translate(27.792,14.417)"><text width="54.58333333333333" height="12.499999046325684" transform="scale(1,1) translate(0,7.666667143503824)" xml:space="preserve"><tspan xml:space="preserve" text-rendering="optimizeSpeed" font-size="11.11111111111111" font-weight="normal" font-style="normal" text-decoration="none" fill="#333333" opacity="1" x="4.446" text-anchor="start" y="10" textLength="45.69072723388672" style="font-family: Arial, Helvetica Neue, Helvetica, sans-serif;">Manages</tspan></text></g></g><g width="110.167" height="56.667" transform="scale(1,1) translate(711,501.167)"><g transform="scale(1,1) translate(0,0)" stroke="#87BDE2" fill="#87BDE2" fill-opacity="1" stroke-opacity="1"><path d="M55.083,0 L110.167,28.333 L55.083,56.667 L0,28.333 L55.083,0 z" stroke-width="1" stroke-dasharray="none"/></g><g width="54.58333333333333" height="27.833333333333332" transform="scale(1,1) translate(27.792,14.417)"><text width="54.58333333333333" height="12.499999046325684" transform="scale(1,1) translate(0,7.666667143503824)" xml:space="preserve"><tspan xml:space="preserve" text-rendering="optimizeSpeed" font-size="11.11111111111111" font-weight="normal" font-style="normal" text-decoration="none" fill="#333333" opacity="1" x="5.374" text-anchor="start" y="10" textLength="43.835994720458984" style="font-family: Arial, Helvetica Neue, Helvetica, sans-serif;">Contains</tspan></text></g></g><g width="100" height="50" transform="scale(1,1) translate(566,335.833)"><g stroke="#E1F2F9" stroke-opacity="1" stroke-width="1" stroke-dasharray="none" width="100" height="50" transform="scale(1,1) translate(0,0)" fill="#E1F2F9" fill-opacity="1"><rect width="100" height="50"/></g><g width="95" height="45" transform="scale(1,1) translate(2.5,2.5)"><text width="95" height="28.333332061767578" transform="scale(1,1) translate(0,8.333333969116211)" xml:space="preserve"><tspan xml:space="preserve" text-rendering="optimizeSpeed" font-size="12.5" font-weight="normal" font-style="normal" text-decoration="none" fill="#333333" opacity="1" x="26.312" text-anchor="start" y="11.667" textLength="38.90380859375" style="font-family: Arial, Helvetica Neue, Helvetica, sans-serif;">Quality</tspan><tspan xml:space="preserve" text-rendering="optimizeSpeed" font-size="12.5" font-weight="normal" font-style="normal" text-decoration="none" fill="#333333" opacity="1" x="17.971" text-anchor="start" y="25.833" textLength="59.0576171875" style="font-family: Arial, Helvetica Neue, Helvetica, sans-serif;">Assurance</tspan></text></g></g><g width="136.642" height="64.667" transform="scale(1,1) translate(411.763,328.5)"><g transform="scale(1,1) translate(0,0)" stroke="#87BDE2" fill="#87BDE2" fill-opacity="1" stroke-opacity="1"><path d="M68.321,0 L136.642,32.333 L68.321,64.667 L0,32.333 L68.321,0 z" stroke-width="1" stroke-dasharray="none"/></g><g width="67.82077625570776" height="31.83333333333333" transform="scale(1,1) translate(34.41,16.417)"><text width="67.82077625570776" height="12.499999046325684" transform="scale(1,1) translate(0,9.666667143503823)" xml:space="preserve"><tspan xml:space="preserve" text-rendering="optimizeSpeed" font-size="11.11111111111111" font-weight="normal" font-style="normal" text-decoration="none" fill="#333333" opacity="1" x="11.065" text-anchor="start" y="10" textLength="45.69072723388672" style="font-family: Arial, Helvetica Neue, Helvetica, sans-serif;">Manages</tspan></text></g></g><g width="110.167" height="56.667" transform="scale(1,1) translate(286,577.833)"><g transform="scale(1,1) translate(0,0)" stroke="#87BDE2" fill="#87BDE2" fill-opacity="1" stroke-opacity="1"><path d="M55.083,0 L110.167,28.333 L55.083,56.667 L0,28.333 L55.083,0 z" stroke-width="1" stroke-dasharray="none"/></g><g width="54.58333333333333" height="27.833333333333332" transform="scale(1,1) translate(27.792,14.417)"><text width="54.58333333333333" height="12.499999046325684" transform="scale(1,1) translate(0,7.666667143503824)" xml:space="preserve"><tspan xml:space="preserve" text-rendering="optimizeSpeed" font-size="11.11111111111111" font-weight="normal" font-style="normal" text-decoration="none" fill="#333333" opacity="1" x="4.446" text-anchor="start" y="10" textLength="45.69072723388672" style="font-family: Arial, Helvetica Neue, Helvetica, sans-serif;">Manages</tspan></text></g></g><g width="110.167" height="56.667" transform="scale(1,1) translate(425,661.167)"><g transform="scale(1,1) translate(0,0)" stroke="#87BDE2" fill="#87BDE2" fill-opacity="1" stroke-opacity="1"><path d="M55.083,0 L110.167,28.333 L55.083,56.667 L0,28.333 L55.083,0 z" stroke-width="1" stroke-dasharray="none"/></g><g width="54.58333333333333" height="27.833333333333332" transform="scale(1,1) translate(27.792,14.417)"><text width="54.58333333333333" height="12.499999046325684" transform="scale(1,1) translate(0,7.666667143503824)" xml:space="preserve"><tspan xml:space="preserve" text-rendering="optimizeSpeed" font-size="11.11111111111111" font-weight="normal" font-style="normal" text-decoration="none" fill="#333333" opacity="1" x="5.374" text-anchor="start" y="10" textLength="43.835994720458984" style="font-family: Arial, Helvetica Neue, Helvetica, sans-serif;">Contains</tspan></text></g></g><g width="0.083" height="31" transform="scale(1,1) translate(341,385.833)"><g transform="scale(1,1) translate(0,0)" fill="#000000" stroke="#000000" stroke-opacity="1"><path d="M0,0 L0.083,31" fill="none" stroke-width="1" stroke-dasharray="none"/><g><g stroke-dasharray="none"><path d="M-4.973,10.013L5.027,9.987" stroke-width="0.5" fill="none"/></g></g></g></g><g width="0.083" height="31" transform="scale(1,1) translate(341,473.5)"><g transform="scale(1,1) translate(0,0)" fill="#000000" stroke="#000000" stroke-opacity="1"><path d="M0.083,0 L0,31" fill="none" stroke-width="1" stroke-dasharray="none"/><g><g stroke-dasharray="none"><path d="M5.027,21.013L-4.973,20.987" stroke-width="0.5" fill="none"/></g></g></g></g><g width="34" height="0" transform="scale(1,1) translate(391,529.5)"><g transform="scale(1,1) translate(0,0)" fill="#545454" stroke="#545454" stroke-opacity="1"><path d="M0,0 L34,0" fill="none" stroke-width="1" stroke-dasharray="none"/><g><g stroke-dasharray="none"><path d="M10,5L10,-5" stroke-width="0.5" fill="none"/></g></g></g></g><g width="30.833" height="0" transform="scale(1,1) translate(535.167,529.5)"><g transform="scale(1,1) translate(0,0)" fill="#545454" stroke="#545454" stroke-opacity="1"><path d="M0,0 L30.833,0" fill="none" stroke-width="1" stroke-dasharray="none"/><g><g stroke-dasharray="none"><path d="M20.833,-5L20.833,5" stroke-width="0.5" fill="none"/></g></g></g></g><g width="45" height="0" transform="scale(1,1) translate(666,529.5)"><g transform="scale(1,1) translate(0,0)" fill="#545454" stroke="#545454" stroke-opacity="1"><path d="M0,0 L45,0" fill="none" stroke-width="1" stroke-dasharray="none"/><g><g stroke-dasharray="none"><path d="M10,5L10,-5" stroke-width="0.5" fill="none"/></g></g></g></g><g width="0.083" height="23.333" transform="scale(1,1) translate(341,554.5)"><g transform="scale(1,1) translate(0,0)" fill="#000000" stroke="#000000" stroke-opacity="1"><path d="M0,0 L0.083,23.333" fill="none" stroke-width="1" stroke-dasharray="none"/><g><g stroke-dasharray="none"><path d="M-4.964,10.018L5.036,9.982" stroke-width="0.5" fill="none"/></g></g></g></g><g width="22.333" height="0" transform="scale(1,1) translate(268.667,529.5)"><g transform="scale(1,1) translate(0,0)" fill="#545454" stroke="#545454" stroke-opacity="1"><path d="M0,0 L22.333,0" fill="none" stroke-width="1" stroke-dasharray="none"/><g><g stroke-dasharray="none"><path d="M12.333,-5L12.333,5" stroke-width="0.5" fill="none"/></g></g></g></g><g width="34.833" height="2.25" transform="scale(1,1) translate(821.167,527.25)"><g transform="scale(1,1) translate(0,0)" fill="#545454" stroke="#545454" stroke-opacity="1"><path d="M 0 2.25 L 24.854 0.645" fill="none" stroke-width="1" stroke-dasharray="none"/><g><g stroke-dasharray="none"><path d="M24.854,0.645L34.511,-4.99M24.854,0.645L34.833,0M24.854,0.645L35.155,4.99" stroke-width="0.5" fill="none"/></g></g></g></g><g width="20.763" height="0" transform="scale(1,1) translate(391,360.833)"><g transform="scale(1,1) translate(0,0)" fill="#545454" stroke="#545454" stroke-opacity="1"><path d="M0,0 L20.763,0" fill="none" stroke-width="1" stroke-dasharray="none"/><g><g stroke-dasharray="none"><path d="M10,5L10,-5" stroke-width="0.5" fill="none"/></g></g></g></g><g width="17.596" height="0" transform="scale(1,1) translate(548.404,360.833)"><g transform="scale(1,1) translate(0,0)" fill="#000000" stroke="#000000" stroke-opacity="1"><path d="M0,0 L17.596,0" fill="none" stroke-width="1" stroke-dasharray="none"/><g><g stroke-dasharray="none"><path d="M7.596,-5L7.596,5" stroke-width="0.5" fill="none"/></g></g></g></g><g width="100" height="50" transform="scale(1,1) translate(291,178.5)"><g stroke="#E1F2F9" stroke-opacity="1" stroke-width="1" stroke-dasharray="none" width="100" height="50" transform="scale(1,1) translate(0,0)" fill="#E1F2F9" fill-opacity="1"><rect width="100" height="50"/></g><g width="95" height="45" transform="scale(1,1) translate(2.5,2.5)"><text width="95" height="28.333332061767578" transform="scale(1,1) translate(0,8.333333969116211)" xml:space="preserve"><tspan xml:space="preserve" text-rendering="optimizeSpeed" font-size="12.5" font-weight="normal" font-style="normal" text-decoration="none" fill="#333333" opacity="1" x="8.938" text-anchor="start" y="11.667" textLength="73.651123046875" style="font-family: Arial, Helvetica Neue, Helvetica, sans-serif;">Development</tspan><tspan xml:space="preserve" text-rendering="optimizeSpeed" font-size="12.5" font-weight="normal" font-style="normal" text-decoration="none" fill="#333333" opacity="1" x="27.697" text-anchor="start" y="25.833" textLength="39.605712890625" style="font-family: Arial, Helvetica Neue, Helvetica, sans-serif;">Branch</tspan></text></g></g><g width="110.167" height="56.667" transform="scale(1,1) translate(286,254.667)"><g transform="scale(1,1) translate(0,0)" stroke="#87BDE2" fill="#87BDE2" fill-opacity="1" stroke-opacity="1"><path d="M55.083,0 L110.167,28.333 L55.083,56.667 L0,28.333 L55.083,0 z" stroke-width="1" stroke-dasharray="none"/></g><g width="54.58333333333333" height="27.833333333333332" transform="scale(1,1) translate(27.792,14.417)"><text width="54.58333333333333" height="14.166666030883789" transform="scale(1,1) translate(0,6.8333336512247715)" xml:space="preserve"><tspan xml:space="preserve" text-rendering="optimizeSpeed" font-size="12.5" font-weight="normal" font-style="normal" text-decoration="none" fill="#333333" opacity="1" x="1.581" text-anchor="start" y="11.667" textLength="51.422119140625" style="font-family: Arial, Helvetica Neue, Helvetica, sans-serif;">Manages</tspan></text></g></g><g width="0.083" height="24.5" transform="scale(1,1) translate(341,311.333)"><g transform="scale(1,1) translate(0,0)" fill="#545454" stroke="#545454" stroke-opacity="1"><path d="M0.083,0 L0,24.5" fill="none" stroke-width="1" stroke-dasharray="none"/><g><g stroke-dasharray="none"><path d="M5.034,14.517L-4.966,14.483" stroke-width="0.5" fill="none"/></g></g></g></g><g width="0.083" height="26.167" transform="scale(1,1) translate(341,228.5)"><g transform="scale(1,1) translate(0,0)" fill="#545454" stroke="#545454" stroke-opacity="1"><path d="M0,0 L0.083,26.167" fill="none" stroke-width="1" stroke-dasharray="none"/><g><g stroke-dasharray="none"><path d="M-4.968,10.016L5.032,9.984" stroke-width="0.5" fill="none"/></g></g></g></g><g width="110.167" height="56.667" transform="scale(1,1) translate(705,332.5)"><g transform="scale(1,1) translate(0,0)" stroke="#87BDE2" fill="#87BDE2" fill-opacity="1" stroke-opacity="1"><path d="M55.083,0 L110.167,28.333 L55.083,56.667 L0,28.333 L55.083,0 z" stroke-width="1" stroke-dasharray="none"/></g><g width="54.58333333333333" height="27.833333333333332" transform="scale(1,1) translate(27.792,14.417)"><text width="54.58333333333333" height="12.499999046325684" transform="scale(1,1) translate(0,7.666667143503824)" xml:space="preserve"><tspan xml:space="preserve" text-rendering="optimizeSpeed" font-size="11.11111111111111" font-weight="normal" font-style="normal" text-decoration="none" fill="#333333" opacity="1" x="5.374" text-anchor="start" y="10" textLength="43.835994720458984" style="font-family: Arial, Helvetica Neue, Helvetica, sans-serif;">Contains</tspan></text></g></g><g width="39" height="0" transform="scale(1,1) translate(666,360.833)"><g transform="scale(1,1) translate(0,0)" fill="#000000" stroke="#000000" stroke-opacity="1"><path d="M0,0 L39,0" fill="none" stroke-width="1" stroke-dasharray="none"/><g><g stroke-dasharray="none"><path d="M10,5L10,-5" stroke-width="0.5" fill="none"/></g></g></g></g><g width="40.833" height="2.25" transform="scale(1,1) translate(815.167,358.583)"><g transform="scale(1,1) translate(0,0)" fill="#000000" stroke="#000000" stroke-opacity="1"><path d="M 0 2.25 L 30.848 0.55" fill="none" stroke-width="1" stroke-dasharray="none"/><g><g stroke-dasharray="none"><path d="M30.848,0.55L40.558,-4.992M30.848,0.55L40.833,0M30.848,0.55L41.108,4.992" stroke-width="0.5" fill="none"/></g></g></g></g><g width="110.167" height="56.667" transform="scale(1,1) translate(702.667,416.5)"><g transform="scale(1,1) translate(0,0)" stroke="#87BDE2" fill="#87BDE2" fill-opacity="1" stroke-opacity="1"><path d="M55.083,0 L110.167,28.333 L55.083,56.667 L0,28.333 L55.083,0 z" stroke-width="1" stroke-dasharray="none"/></g><g width="54.58333333333333" height="27.833333333333332" transform="scale(1,1) translate(27.792,14.417)"><text width="54.58333333333333" height="12.499999046325684" transform="scale(1,1) translate(0,7.666667143503824)" xml:space="preserve"><tspan xml:space="preserve" text-rendering="optimizeSpeed" font-size="11.11111111111111" font-weight="normal" font-style="normal" text-decoration="none" fill="#333333" opacity="1" x="9.696" text-anchor="start" y="10" textLength="35.19134521484375" style="font-family: Arial, Helvetica Neue, Helvetica, sans-serif;">Shares</tspan></text></g></g><g width="121.333" height="37.833" transform="scale(1,1) translate(785.167,392.833)"><g transform="scale(1,1) translate(0,0)" fill="#545454" stroke="#545454" stroke-opacity="1"><path d="M 0 37.833 L 121.333 37.833 L 121.333 20" fill="none" stroke-width="1" stroke-dasharray="none"/><g><g stroke-dasharray="none"><path d="M120.833,20A5,5 270 1 1 121.833,20z" stroke-width="0.5" fill="none"/><path d="M121.333,10L116.333,0M121.333,10L121.333,0M121.333,10L126.333,0" stroke-width="0.5" fill="none"/></g></g></g></g><g width="114.167" height="45.5" transform="scale(1,1) translate(616,459)"><g transform="scale(1,1) translate(0,0)" fill="#545454" stroke="#545454" stroke-opacity="1"><path d="M0,45.5 L0,0 L114.167,0" fill="none" stroke-width="1" stroke-dasharray="none"/><g><g stroke-dasharray="none"><path d="M5,35.5L-5,35.5" stroke-width="0.5" fill="none"/></g></g></g></g><g width="121.333" height="34" transform="scale(1,1) translate(785.167,459)"><g transform="scale(1,1) translate(0,0)" fill="#545454" stroke="#545454" stroke-opacity="1"><path d="M 0 0 L 121.333 0 L 121.333 14" fill="none" stroke-width="1" stroke-dasharray="none"/><g><g stroke-dasharray="none"><path d="M121.833,14A5,5 90 1 1 120.833,14z" stroke-width="0.5" fill="none"/><path d="M121.333,24L126.333,34M121.333,24L121.333,34M121.333,24L116.333,34" stroke-width="0.5" fill="none"/></g></g></g></g><g width="114.167" height="44.833" transform="scale(1,1) translate(616,385.833)"><g transform="scale(1,1) translate(0,0)" fill="#545454" stroke="#545454" stroke-opacity="1"><path d="M0,0 L0,44.833 L114.167,44.833" fill="none" stroke-width="1" stroke-dasharray="none"/><g><g stroke-dasharray="none"><path d="M-5,10L5,10" stroke-width="0.5" fill="none"/></g></g></g></g><g width="0.083" height="30" transform="scale(1,1) translate(341,634.5)"><g transform="scale(1,1) translate(0,0)" fill="#545454" stroke="#545454" stroke-opacity="1"><path d="M0.083,0 L0,30" fill="none" stroke-width="1" stroke-dasharray="none"/><g><g stroke-dasharray="none"><path d="M5.028,20.014L-4.972,19.986" stroke-width="0.5" fill="none"/></g></g></g></g><g width="34" height="0" transform="scale(1,1) translate(391,689.5)"><g transform="scale(1,1) translate(0,0)" fill="#545454" stroke="#545454" stroke-opacity="1"><path d="M0,0 L34,0" fill="none" stroke-width="1" stroke-dasharray="none"/><g><g stroke-dasharray="none"><path d="M10,5L10,-5" stroke-width="0.5" fill="none"/></g></g></g></g><g width="28.833" height="4.25" transform="scale(1,1) translate(535.167,685.25)"><g transform="scale(1,1) translate(0,0)" fill="#000000" stroke="#000000" stroke-opacity="1"><path d="M 0 4.25 L 18.94 1.458" fill="none" stroke-width="1" stroke-dasharray="none"/><g><g stroke-dasharray="none"><path d="M18.94,1.458L28.104,-4.947M18.94,1.458L28.833,0M18.94,1.458L29.562,4.947" stroke-width="0.5" fill="none"/></g></g></g></g><g width="1.083" height="23" transform="scale(1,1) translate(85.5,629.5)"><g transform="scale(1,1) translate(0,0)" fill="#545454" stroke="#545454" stroke-opacity="1"><path d="M 0.47 13.011 L 1.083 0" fill="none" stroke-width="1" stroke-dasharray="none"/><g><g stroke-dasharray="none"><path d="M0.47,13.011L4.994,23.235M0.47,13.011L0,23M0.47,13.011L-4.994,22.765" stroke-width="0.5" fill="none"/></g></g></g></g><g width="100" height="50" transform="scale(1,1) translate(37,335.833)"><g stroke="#E1F2F9" stroke-opacity="1" stroke-width="1" stroke-dasharray="none" width="100" height="50" transform="scale(1,1) translate(0,0)" fill="#E1F2F9" fill-opacity="1"><rect width="100" height="50"/></g><g width="95" height="45" transform="scale(1,1) translate(2.5,2.5)"><text width="95" height="14.166666030883789" transform="scale(1,1) translate(0,15.416666984558105)" xml:space="preserve"><tspan xml:space="preserve" text-rendering="optimizeSpeed" font-size="12.5" font-weight="normal" font-style="normal" text-decoration="none" fill="#333333" opacity="1" x="16.577" text-anchor="start" y="11.667" textLength="61.846923828125" style="font-family: Arial, Helvetica Neue, Helvetica, sans-serif;">Accounting</tspan></text></g></g><g width="115.033" height="56.667" transform="scale(1,1) translate(155.9,332.5)"><g transform="scale(1,1) translate(0,0)" stroke="#87BDE2" fill="#87BDE2" fill-opacity="1" stroke-opacity="1"><path d="M57.517,0 L115.033,28.333 L57.517,56.667 L0,28.333 L57.517,0 z" stroke-width="1" stroke-dasharray="none"/></g><g width="57.01666666666666" height="27.833333333333332" transform="scale(1,1) translate(29.008,14.417)"><text width="57.01666666666666" height="12.499999046325684" transform="scale(1,1) translate(0,7.666667143503824)" xml:space="preserve"><tspan xml:space="preserve" text-rendering="optimizeSpeed" font-size="11.11111111111111" font-weight="normal" font-style="normal" text-decoration="none" fill="#333333" opacity="1" x="5.663" text-anchor="start" y="10" textLength="45.69072723388672" style="font-family: Arial, Helvetica Neue, Helvetica, sans-serif;">Manages</tspan></text></g></g><g width="20.067" height="0" transform="scale(1,1) translate(270.933,360.833)"><g transform="scale(1,1) translate(0,0)" fill="#000000" stroke="#000000" stroke-opacity="1"><path d="M0,0 L20.067,0" fill="none" stroke-width="1" stroke-dasharray="none"/><g><g stroke-dasharray="none"><path d="M10.067,-5L10.067,5" stroke-width="0.5" fill="none"/></g></g></g></g><g width="18.9" height="0" transform="scale(1,1) translate(137,360.833)"><g transform="scale(1,1) translate(0,0)" fill="#000000" stroke="#000000" stroke-opacity="1"><path d="M0,0 L18.9,0" fill="none" stroke-width="1" stroke-dasharray="none"/><g><g stroke-dasharray="none"><path d="M10,5L10,-5" stroke-width="0.5" fill="none"/></g></g></g></g><g width="110.167" height="56.667" transform="scale(1,1) translate(31.667,247)"><g transform="scale(1,1) translate(0,0)" stroke="#87BDE2" fill="#87BDE2" fill-opacity="1" stroke-opacity="1"><path d="M55.083,0 L110.167,28.333 L55.083,56.667 L0,28.333 L55.083,0 z" stroke-width="1" stroke-dasharray="none"/></g><g width="54.58333333333333" height="27.833333333333332" transform="scale(1,1) translate(27.792,14.417)"><text width="54.58333333333333" height="12.499999046325684" transform="scale(1,1) translate(0,7.666667143503824)" xml:space="preserve"><tspan xml:space="preserve" text-rendering="optimizeSpeed" font-size="11.11111111111111" font-weight="normal" font-style="normal" text-decoration="none" fill="#333333" opacity="1" x="5.374" text-anchor="start" y="10" textLength="43.835994720458984" style="font-family: Arial, Helvetica Neue, Helvetica, sans-serif;">Contains</tspan></text></g></g><g width="0.25" height="32.167" transform="scale(1,1) translate(86.75,303.667)"><g transform="scale(1,1) translate(0,0)" fill="#545454" stroke="#545454" stroke-opacity="1"><path d="M0,0 L0.25,32.167" fill="none" stroke-width="1" stroke-dasharray="none"/><g><g stroke-dasharray="none"><path d="M5.172,22.128L-4.828,22.206" stroke-width="0.5" fill="none"/></g></g></g></g><g width="0.75" height="33" transform="scale(1,1) translate(86.75,214)"><g transform="scale(1,1) translate(0,0)" fill="#545454" stroke="#545454" stroke-opacity="1"><path d="M 0.523 9.997 L 0 33" fill="none" stroke-width="1" stroke-dasharray="none"/><g><g stroke-dasharray="none"><path d="M0.523,9.997L-4.249,-0.114M0.523,9.997L0.75,0M0.523,9.997L5.749,0.114" stroke-width="0.5" fill="none"/></g></g></g></g><g width="110.167" height="56.667" transform="scale(1,1) translate(561,175.167)"><g transform="scale(1,1) translate(0,0)" stroke="#87BDE2" fill="#87BDE2" fill-opacity="1" stroke-opacity="1"><path d="M55.083,0 L110.167,28.333 L55.083,56.667 L0,28.333 L55.083,0 z" stroke-width="1" stroke-dasharray="none"/></g><g width="54.58333333333333" height="27.833333333333332" transform="scale(1,1) translate(27.792,14.417)"><text width="54.58333333333333" height="24.999998092651367" transform="scale(1,1) translate(0,1.4166676203409825)" xml:space="preserve"><tspan xml:space="preserve" text-rendering="optimizeSpeed" font-size="11.11111111111111" font-weight="normal" font-style="normal" text-decoration="none" fill="#333333" opacity="1" x="12.893" text-anchor="start" y="10" textLength="25.711502075195312" style="font-family: Arial, Helvetica Neue, Helvetica, sans-serif;">Work</tspan><tspan xml:space="preserve" text-rendering="optimizeSpeed" font-size="11.11111111111111" font-weight="normal" font-style="normal" text-decoration="none" fill="#333333" opacity="1" x="10.729" text-anchor="start" y="22.5" textLength="33.1249885559082" style="font-family: Arial, Helvetica Neue, Helvetica, sans-serif;">closely</tspan></text></g></g><g width="110.167" height="56.667" transform="scale(1,1) translate(286,89.667)"><g transform="scale(1,1) translate(0,0)" stroke="#87BDE2" fill="#87BDE2" fill-opacity="1" stroke-opacity="1"><path d="M55.083,0 L110.167,28.333 L55.083,56.667 L0,28.333 L55.083,0 z" stroke-width="1" stroke-dasharray="none"/></g><g width="54.58333333333333" height="27.833333333333332" transform="scale(1,1) translate(27.792,14.417)"><text width="54.58333333333333" height="12.499999046325684" transform="scale(1,1) translate(0,7.666667143503824)" xml:space="preserve"><tspan xml:space="preserve" text-rendering="optimizeSpeed" font-size="11.11111111111111" font-weight="normal" font-style="normal" text-decoration="none" fill="#333333" opacity="1" x="5.374" text-anchor="start" y="10" textLength="43.835994720458984" style="font-family: Arial, Helvetica Neue, Helvetica, sans-serif;">Contains</tspan></text></g></g><g width="0.083" height="32.167" transform="scale(1,1) translate(341,146.333)"><g transform="scale(1,1) translate(0,0)" fill="#545454" stroke="#545454" stroke-opacity="1"><path d="M0.083,0 L0,32.167" fill="none" stroke-width="1" stroke-dasharray="none"/><g><g stroke-dasharray="none"><path d="M5.026,22.18L-4.974,22.154" stroke-width="0.5" fill="none"/></g></g></g></g><g width="34.833" height="4.25" transform="scale(1,1) translate(396.167,113.75)"><g transform="scale(1,1) translate(0,0)" fill="#545454" stroke="#545454" stroke-opacity="1"><path d="M 0 4.25 L 24.907 1.211" fill="none" stroke-width="1" stroke-dasharray="none"/><g><g stroke-dasharray="none"><path d="M24.907,1.211L34.227,-4.963M24.907,1.211L34.833,0M24.907,1.211L35.439,4.963" stroke-width="0.5" fill="none"/></g></g></g></g><g width="0.083" height="104" transform="scale(1,1) translate(616,231.833)"><g transform="scale(1,1) translate(0,0)" fill="#545454" stroke="#545454" stroke-opacity="1"><path d="M0.083,0 L0,104" fill="none" stroke-width="1" stroke-dasharray="none"/><g><g stroke-dasharray="none"><path d="M5.008,94.004L-4.992,93.996" stroke-width="0.5" fill="none"/></g></g></g></g><g width="170" height="0" transform="scale(1,1) translate(391,203.5)"><g transform="scale(1,1) translate(0,0)" fill="#545454" stroke="#545454" stroke-opacity="1"><path d="M0,0 L170,0" fill="none" stroke-width="1" stroke-dasharray="none"/><g><g stroke-dasharray="none"><path d="M10,5L10,-5" stroke-width="0.5" fill="none"/></g></g></g></g><g width="101" height="68.5" transform="scale(1,1) translate(856,324.333)"><g stroke="#CFE9F7" stroke-opacity="1" stroke-width="1" stroke-dasharray="none" width="101" height="68.5" transform="scale(1,1) translate(0,0)" fill="#CFE9F7" fill-opacity="1"><rect width="101" height="68.5"/></g><g transform="scale(1,1) translate(0,0)" fill="#CFE9F7" opacity="1" stroke="#CFE9F7"><path d="M0.5,0.5 L100.5,0.5 L100.5,21.5 L0.5,21.5 z M0.5,21.5 L100.5,21.5 L100.5,68 L0.5,68 z" stroke-width="0" stroke-dasharray="none"/></g><g width="95" height="16" transform="scale(1,1) translate(2.5,2.5)"><text width="95" height="14.166666030883789" transform="scale(1,1) translate(0,0.9166669845581055)" xml:space="preserve"><tspan xml:space="preserve" text-rendering="optimizeSpeed" font-size="12.5" font-weight="normal" font-style="normal" text-decoration="none" fill="#333333" opacity="1" x="16.583" text-anchor="start" y="11.667" textLength="61.834716796875" style="font-family: Arial, Helvetica Neue, Helvetica, sans-serif;">Employees</tspan></text></g><g width="95" height="42.49999809265137" transform="scale(1,1) translate(2.5,23.5)"><text width="95" height="42.49999809265137" transform="scale(1,1) translate(0,0)" xml:space="preserve"><tspan xml:space="preserve" text-rendering="optimizeSpeed" font-size="12.5" font-weight="normal" font-style="normal" text-decoration="none" fill="#333333" opacity="1" x="25.616" text-anchor="start" y="11.667" textLength="43.768310546875" style="font-family: Arial, Helvetica Neue, Helvetica, sans-serif;">Name 1</tspan><tspan xml:space="preserve" text-rendering="optimizeSpeed" font-size="12.5" font-weight="normal" font-style="normal" text-decoration="none" fill="#333333" opacity="1" x="25.616" text-anchor="start" y="25.833" textLength="43.768310546875" style="font-family: Arial, Helvetica Neue, Helvetica, sans-serif;">Name 2</tspan><tspan xml:space="preserve" text-rendering="optimizeSpeed" font-size="12.5" font-weight="normal" font-style="normal" text-decoration="none" fill="#333333" opacity="1" x="25.616" text-anchor="start" y="40" textLength="43.768310546875" style="font-family: Arial, Helvetica Neue, Helvetica, sans-serif;">Name 3</tspan></text></g><g transform="scale(1,1) translate(0,0)" fill="#CFE9F7" stroke="#CFE9F7" stroke-opacity="1"><path d="M0.5,21 L100.5,21" fill="none" stroke-width="1" stroke-dasharray="none"/><g><g stroke-dasharray="none"><path d="M-0.5,20L1.5,20L1.5,22L-0.5,22z" stroke-width="0" fill="none"/></g></g></g><g stroke="white" fill="none" stroke-opacity="0" stroke-width="3" stroke-dasharray="none" width="3" height="67.5" transform="scale(1,1) translate(3.5,0.5)"><rect width="3" height="67.5"/></g><g stroke="white" fill="none" stroke-opacity="0" stroke-width="3" stroke-dasharray="none" width="100" height="3" transform="scale(1,1) translate(0.5,3.5)"><rect width="100" height="3"/></g></g><g width="101" height="68.5" transform="scale(1,1) translate(856,493)"><g stroke="#CFE9F7" stroke-opacity="1" stroke-width="1" stroke-dasharray="none" width="101" height="68.5" transform="scale(1,1) translate(0,0)" fill="#CFE9F7" fill-opacity="1"><rect width="101" height="68.5"/></g><g transform="scale(1,1) translate(0,0)" fill="#CFE9F7" opacity="1" stroke="#CFE9F7"><path d="M0.5,0.5 L100.5,0.5 L100.5,21.5 L0.5,21.5 z M0.5,21.5 L100.5,21.5 L100.5,68 L0.5,68 z" stroke-width="0" stroke-dasharray="none"/></g><g width="95" height="16" transform="scale(1,1) translate(2.5,2.5)"><text width="95" height="14.166666030883789" transform="scale(1,1) translate(0,0.9166669845581055)" xml:space="preserve"><tspan xml:space="preserve" text-rendering="optimizeSpeed" font-size="12.5" font-weight="normal" font-style="normal" text-decoration="none" fill="#333333" opacity="1" x="16.583" text-anchor="start" y="11.667" textLength="61.834716796875" style="font-family: Arial, Helvetica Neue, Helvetica, sans-serif;">Employees</tspan></text></g><g width="95" height="42.49999809265137" transform="scale(1,1) translate(2.5,23.5)"><text width="95" height="42.49999809265137" transform="scale(1,1) translate(0,0)" xml:space="preserve"><tspan xml:space="preserve" text-rendering="optimizeSpeed" font-size="12.5" font-weight="normal" font-style="normal" text-decoration="none" fill="#333333" opacity="1" x="25.616" text-anchor="start" y="11.667" textLength="43.768310546875" style="font-family: Arial, Helvetica Neue, Helvetica, sans-serif;">Name 1</tspan><tspan xml:space="preserve" text-rendering="optimizeSpeed" font-size="12.5" font-weight="normal" font-style="normal" text-decoration="none" fill="#333333" opacity="1" x="25.616" text-anchor="start" y="25.833" textLength="43.768310546875" style="font-family: Arial, Helvetica Neue, Helvetica, sans-serif;">Name 2</tspan><tspan xml:space="preserve" text-rendering="optimizeSpeed" font-size="12.5" font-weight="normal" font-style="normal" text-decoration="none" fill="#333333" opacity="1" x="25.616" text-anchor="start" y="40" textLength="43.768310546875" style="font-family: Arial, Helvetica Neue, Helvetica, sans-serif;">Name 3</tspan></text></g><g transform="scale(1,1) translate(0,0)" fill="#CFE9F7" stroke="#CFE9F7" stroke-opacity="1"><path d="M0.5,21 L100.5,21" fill="none" stroke-width="1" stroke-dasharray="none"/><g><g stroke-dasharray="none"><path d="M-0.5,20L1.5,20L1.5,22L-0.5,22z" stroke-width="0" fill="none"/></g></g></g><g stroke="white" fill="none" stroke-opacity="0" stroke-width="3" stroke-dasharray="none" width="3" height="67.5" transform="scale(1,1) translate(3.5,0.5)"><rect width="3" height="67.5"/></g><g stroke="white" fill="none" stroke-opacity="0" stroke-width="3" stroke-dasharray="none" width="100" height="3" transform="scale(1,1) translate(0.5,3.5)"><rect width="100" height="3"/></g></g><g width="101" height="68.5" transform="scale(1,1) translate(564,651)"><g stroke="#CFE9F7" stroke-opacity="1" stroke-width="1" stroke-dasharray="none" width="101" height="68.5" transform="scale(1,1) translate(0,0)" fill="#CFE9F7" fill-opacity="1"><rect width="101" height="68.5"/></g><g transform="scale(1,1) translate(0,0)" fill="#CFE9F7" opacity="1" stroke="#CFE9F7"><path d="M0.5,0.5 L100.5,0.5 L100.5,21.5 L0.5,21.5 z M0.5,21.5 L100.5,21.5 L100.5,68 L0.5,68 z" stroke-width="0" stroke-dasharray="none"/></g><g width="95" height="16" transform="scale(1,1) translate(2.5,2.5)"><text width="95" height="14.166666030883789" transform="scale(1,1) translate(0,0.9166669845581055)" xml:space="preserve"><tspan xml:space="preserve" text-rendering="optimizeSpeed" font-size="12.5" font-weight="normal" font-style="normal" text-decoration="none" fill="#333333" opacity="1" x="16.583" text-anchor="start" y="11.667" textLength="61.834716796875" style="font-family: Arial, Helvetica Neue, Helvetica, sans-serif;">Employees</tspan></text></g><g width="95" height="42.49999809265137" transform="scale(1,1) translate(2.5,23.5)"><text width="95" height="42.49999809265137" transform="scale(1,1) translate(0,0)" xml:space="preserve"><tspan xml:space="preserve" text-rendering="optimizeSpeed" font-size="12.5" font-weight="normal" font-style="normal" text-decoration="none" fill="#333333" opacity="1" x="25.616" text-anchor="start" y="11.667" textLength="43.768310546875" style="font-family: Arial, Helvetica Neue, Helvetica, sans-serif;">Name 1</tspan><tspan xml:space="preserve" text-rendering="optimizeSpeed" font-size="12.5" font-weight="normal" font-style="normal" text-decoration="none" fill="#333333" opacity="1" x="25.616" text-anchor="start" y="25.833" textLength="43.768310546875" style="font-family: Arial, Helvetica Neue, Helvetica, sans-serif;">Name 2</tspan><tspan xml:space="preserve" text-rendering="optimizeSpeed" font-size="12.5" font-weight="normal" font-style="normal" text-decoration="none" fill="#333333" opacity="1" x="25.616" text-anchor="start" y="40" textLength="43.768310546875" style="font-family: Arial, Helvetica Neue, Helvetica, sans-serif;">Name 3</tspan></text></g><g transform="scale(1,1) translate(0,0)" fill="#CFE9F7" stroke="#CFE9F7" stroke-opacity="1"><path d="M0.5,21 L100.5,21" fill="none" stroke-width="1" stroke-dasharray="none"/><g><g stroke-dasharray="none"><path d="M-0.5,20L1.5,20L1.5,22L-0.5,22z" stroke-width="0" fill="none"/></g></g></g><g stroke="white" fill="none" stroke-opacity="0" stroke-width="3" stroke-dasharray="none" width="3" height="67.5" transform="scale(1,1) translate(3.5,0.5)"><rect width="3" height="67.5"/></g><g stroke="white" fill="none" stroke-opacity="0" stroke-width="3" stroke-dasharray="none" width="100" height="3" transform="scale(1,1) translate(0.5,3.5)"><rect width="100" height="3"/></g></g><g width="101" height="68.5" transform="scale(1,1) translate(35,652.5)"><g stroke="#CFE9F7" stroke-opacity="1" stroke-width="1" stroke-dasharray="none" width="101" height="68.5" transform="scale(1,1) translate(0,0)" fill="#CFE9F7" fill-opacity="1"><rect width="101" height="68.5"/></g><g transform="scale(1,1) translate(0,0)" fill="#CFE9F7" opacity="1" stroke="#CFE9F7"><path d="M0.5,0.5 L100.5,0.5 L100.5,21.5 L0.5,21.5 z M0.5,21.5 L100.5,21.5 L100.5,68 L0.5,68 z" stroke-width="0" stroke-dasharray="none"/></g><g width="95" height="16" transform="scale(1,1) translate(2.5,2.5)"><text width="95" height="14.166666030883789" transform="scale(1,1) translate(0,0.9166669845581055)" xml:space="preserve"><tspan xml:space="preserve" text-rendering="optimizeSpeed" font-size="12.5" font-weight="normal" font-style="normal" text-decoration="none" fill="#333333" opacity="1" x="16.583" text-anchor="start" y="11.667" textLength="61.834716796875" style="font-family: Arial, Helvetica Neue, Helvetica, sans-serif;">Employees</tspan></text></g><g width="95" height="42.49999809265137" transform="scale(1,1) translate(2.5,23.5)"><text width="95" height="42.49999809265137" transform="scale(1,1) translate(0,0)" xml:space="preserve"><tspan xml:space="preserve" text-rendering="optimizeSpeed" font-size="12.5" font-weight="normal" font-style="normal" text-decoration="none" fill="#333333" opacity="1" x="25.616" text-anchor="start" y="11.667" textLength="43.768310546875" style="font-family: Arial, Helvetica Neue, Helvetica, sans-serif;">Name 1</tspan><tspan xml:space="preserve" text-rendering="optimizeSpeed" font-size="12.5" font-weight="normal" font-style="normal" text-decoration="none" fill="#333333" opacity="1" x="25.616" text-anchor="start" y="25.833" textLength="43.768310546875" style="font-family: Arial, Helvetica Neue, Helvetica, sans-serif;">Name 2</tspan><tspan xml:space="preserve" text-rendering="optimizeSpeed" font-size="12.5" font-weight="normal" font-style="normal" text-decoration="none" fill="#333333" opacity="1" x="25.616" text-anchor="start" y="40" textLength="43.768310546875" style="font-family: Arial, Helvetica Neue, Helvetica, sans-serif;">Name 3</tspan></text></g><g transform="scale(1,1) translate(0,0)" fill="#CFE9F7" stroke="#CFE9F7" stroke-opacity="1"><path d="M0.5,21 L100.5,21" fill="none" stroke-width="1" stroke-dasharray="none"/><g><g stroke-dasharray="none"><path d="M-0.5,20L1.5,20L1.5,22L-0.5,22z" stroke-width="0" fill="none"/></g></g></g><g transform="scale(1,1) translate(0.5,0.5)" stroke="#0099FF" fill="#0099FF" opacity="0.3"><path d="M0,0 L100,0 L100,21 L0,21 z M0,21 L100,21 L100,67.5 L0,67.5 z" stroke-width="0" stroke-dasharray="none"/></g><g stroke="white" fill="none" stroke-opacity="0" stroke-width="3" stroke-dasharray="none" width="3" height="67.5" transform="scale(1,1) translate(3.5,0.5)"><rect width="3" height="67.5"/></g><g stroke="white" fill="none" stroke-opacity="0" stroke-width="3" stroke-dasharray="none" width="100" height="3" transform="scale(1,1) translate(0.5,3.5)"><rect width="100" height="3"/></g></g><g width="101" height="68.5" transform="scale(1,1) translate(37,145.5)"><g stroke="#CFE9F7" stroke-opacity="1" stroke-width="1" stroke-dasharray="none" width="101" height="68.5" transform="scale(1,1) translate(0,0)" fill="#CFE9F7" fill-opacity="1"><rect width="101" height="68.5"/></g><g transform="scale(1,1) translate(0,0)" fill="#CFE9F7" opacity="1" stroke="#CFE9F7"><path d="M0.5,0.5 L100.5,0.5 L100.5,21.5 L0.5,21.5 z M0.5,21.5 L100.5,21.5 L100.5,68 L0.5,68 z" stroke-width="0" stroke-dasharray="none"/></g><g width="95" height="16" transform="scale(1,1) translate(2.5,2.5)"><text width="95" height="14.166666030883789" transform="scale(1,1) translate(0,0.9166669845581055)" xml:space="preserve"><tspan xml:space="preserve" text-rendering="optimizeSpeed" font-size="12.5" font-weight="normal" font-style="normal" text-decoration="none" fill="#333333" opacity="1" x="16.583" text-anchor="start" y="11.667" textLength="61.834716796875" style="font-family: Arial, Helvetica Neue, Helvetica, sans-serif;">Employees</tspan></text></g><g width="95" height="42.49999809265137" transform="scale(1,1) translate(2.5,23.5)"><text width="95" height="42.49999809265137" transform="scale(1,1) translate(0,0)" xml:space="preserve"><tspan xml:space="preserve" text-rendering="optimizeSpeed" font-size="12.5" font-weight="normal" font-style="normal" text-decoration="none" fill="#333333" opacity="1" x="25.616" text-anchor="start" y="11.667" textLength="43.768310546875" style="font-family: Arial, Helvetica Neue, Helvetica, sans-serif;">Name 1</tspan><tspan xml:space="preserve" text-rendering="optimizeSpeed" font-size="12.5" font-weight="normal" font-style="normal" text-decoration="none" fill="#333333" opacity="1" x="25.616" text-anchor="start" y="25.833" textLength="43.768310546875" style="font-family: Arial, Helvetica Neue, Helvetica, sans-serif;">Name 2</tspan><tspan xml:space="preserve" text-rendering="optimizeSpeed" font-size="12.5" font-weight="normal" font-style="normal" text-decoration="none" fill="#333333" opacity="1" x="25.616" text-anchor="start" y="40" textLength="43.768310546875" style="font-family: Arial, Helvetica Neue, Helvetica, sans-serif;">Name 3</tspan></text></g><g transform="scale(1,1) translate(0,0)" fill="#CFE9F7" stroke="#CFE9F7" stroke-opacity="1"><path d="M0.5,21 L100.5,21" fill="none" stroke-width="1" stroke-dasharray="none"/><g><g stroke-dasharray="none"><path d="M-0.5,20L1.5,20L1.5,22L-0.5,22z" stroke-width="0" fill="none"/></g></g></g><g stroke="white" fill="none" stroke-opacity="0" stroke-width="3" stroke-dasharray="none" width="3" height="67.5" transform="scale(1,1) translate(3.5,0.5)"><rect width="3" height="67.5"/></g><g stroke="white" fill="none" stroke-opacity="0" stroke-width="3" stroke-dasharray="none" width="100" height="3" transform="scale(1,1) translate(0.5,3.5)"><rect width="100" height="3"/></g></g><g width="101" height="68.5" transform="scale(1,1) translate(431,79.5)"><g stroke="#CFE9F7" stroke-opacity="1" stroke-width="1" stroke-dasharray="none" width="101" height="68.5" transform="scale(1,1) translate(0,0)" fill="#CFE9F7" fill-opacity="1"><rect width="101" height="68.5"/></g><g transform="scale(1,1) translate(0,0)" fill="#CFE9F7" opacity="1" stroke="#CFE9F7"><path d="M0.5,0.5 L100.5,0.5 L100.5,21.5 L0.5,21.5 z M0.5,21.5 L100.5,21.5 L100.5,68 L0.5,68 z" stroke-width="0" stroke-dasharray="none"/></g><g width="95" height="16" transform="scale(1,1) translate(2.5,2.5)"><text width="95" height="14.166666030883789" transform="scale(1,1) translate(0,0.9166669845581055)" xml:space="preserve"><tspan xml:space="preserve" text-rendering="optimizeSpeed" font-size="12.5" font-weight="normal" font-style="normal" text-decoration="none" fill="#333333" opacity="1" x="16.583" text-anchor="start" y="11.667" textLength="61.834716796875" style="font-family: Arial, Helvetica Neue, Helvetica, sans-serif;">Employees</tspan></text></g><g width="95" height="42.49999809265137" transform="scale(1,1) translate(2.5,23.5)"><text width="95" height="42.49999809265137" transform="scale(1,1) translate(0,0)" xml:space="preserve"><tspan xml:space="preserve" text-rendering="optimizeSpeed" font-size="12.5" font-weight="normal" font-style="normal" text-decoration="none" fill="#333333" opacity="1" x="25.616" text-anchor="start" y="11.667" textLength="43.768310546875" style="font-family: Arial, Helvetica Neue, Helvetica, sans-serif;">Name 1</tspan><tspan xml:space="preserve" text-rendering="optimizeSpeed" font-size="12.5" font-weight="normal" font-style="normal" text-decoration="none" fill="#333333" opacity="1" x="25.616" text-anchor="start" y="25.833" textLength="43.768310546875" style="font-family: Arial, Helvetica Neue, Helvetica, sans-serif;">Name 2</tspan><tspan xml:space="preserve" text-rendering="optimizeSpeed" font-size="12.5" font-weight="normal" font-style="normal" text-decoration="none" fill="#333333" opacity="1" x="25.616" text-anchor="start" y="40" textLength="43.768310546875" style="font-family: Arial, Helvetica Neue, Helvetica, sans-serif;">Name 3</tspan></text></g><g transform="scale(1,1) translate(0,0)" fill="#CFE9F7" stroke="#CFE9F7" stroke-opacity="1"><path d="M0.5,21 L100.5,21" fill="none" stroke-width="1" stroke-dasharray="none"/><g><g stroke-dasharray="none"><path d="M-0.5,20L1.5,20L1.5,22L-0.5,22z" stroke-width="0" fill="none"/></g></g></g><g stroke="white" fill="none" stroke-opacity="0" stroke-width="3" stroke-dasharray="none" width="3" height="67.5" transform="scale(1,1) translate(3.5,0.5)"><rect width="3" height="67.5"/></g><g stroke="white" fill="none" stroke-opacity="0" stroke-width="3" stroke-dasharray="none" width="100" height="3" transform="scale(1,1) translate(0.5,3.5)"><rect width="100" height="3"/></g></g><g width="985.333" height="47.5" transform="scale(1,1) translate(7.333,6.333)"><g stroke="#000000" stroke-opacity="1" stroke-width="0" stroke-dasharray="none" width="985.333" height="47.5" transform="scale(1,1) translate(0,0)" fill="none"><rect width="985.333" height="47.5"/></g><g width="985.3333333333333" height="47.5" transform="scale(1,1) translate(0,0)"><text width="985.3333333333333" height="24.999998092651367" transform="scale(1,1) translate(0,11.250000953674316)" xml:space="preserve"><tspan xml:space="preserve" text-rendering="optimizeSpeed" font-size="22.22222222222222" font-weight="normal" font-style="normal" text-decoration="none" fill="#333333" opacity="1" x="228.469" text-anchor="start" y="20" textLength="528.3959350585938" style="font-family: Arial, Helvetica Neue, Helvetica, sans-serif;">Entity Relationship Diagram - Administration of MESS</tspan></text></g></g></g></svg>